<svg width="6" height="12" viewBox="0 0 6 12" fill="none" xmlns="http://www.w3.org/2000/svg">
<path d="M4.37012 8.35742C4.37012 7.99805 4.24316 7.69531 3.98926 7.44922C3.73926 7.20312 3.31543 6.98047 2.71777 6.78125C1.88574 6.52734 1.27832 6.19727 0.895508 5.79102C0.516602 5.38086 0.327148 4.86133 0.327148 4.23242C0.327148 3.5918 0.512695 3.06641 0.883789 2.65625C1.25879 2.24609 1.77246 2.00195 2.4248 1.92383V0.640625H3.29785V1.92969C3.9541 2.01953 4.46387 2.29492 4.82715 2.75586C5.19434 3.2168 5.37793 3.84766 5.37793 4.64844H4.2998C4.2998 4.09766 4.16895 3.66016 3.90723 3.33594C3.64551 3.01172 3.29199 2.84961 2.84668 2.84961C2.38184 2.84961 2.02637 2.9707 1.78027 3.21289C1.53418 3.45117 1.41113 3.78516 1.41113 4.21484C1.41113 4.61328 1.54004 4.93164 1.79785 5.16992C2.05957 5.4043 2.4873 5.61914 3.08105 5.81445C3.67871 6.00586 4.14355 6.21875 4.47559 6.45312C4.81152 6.68359 5.05762 6.95312 5.21387 7.26172C5.37402 7.57031 5.4541 7.93164 5.4541 8.3457C5.4541 9.00586 5.25488 9.53711 4.85645 9.93945C4.46191 10.3418 3.90723 10.5801 3.19238 10.6543V11.7734H2.3252V10.6543C1.59863 10.5879 1.02832 10.3301 0.614258 9.88086C0.204102 9.42773 -0.000976562 8.81445 -0.000976562 8.04102H1.08301C1.08301 8.58398 1.22559 9.00195 1.51074 9.29492C1.7959 9.58789 2.2002 9.73438 2.72363 9.73438C3.23535 9.73438 3.6377 9.61133 3.93066 9.36523C4.22363 9.11914 4.37012 8.7832 4.37012 8.35742Z" fill="#595959"/>
</svg>
