<svg width="155" height="80" viewBox="0 0 155 80" fill="none" xmlns="http://www.w3.org/2000/svg">
<g clip-path="url(#clip0_3069_3678)">
<path d="M123.574 0.194416C115.956 1.37778 109.512 6.53269 106.877 13.5518C105.367 17.6044 105.249 22.354 106.558 26.4877C108.539 32.7773 113.673 37.8674 120.184 39.9748C124.463 41.3527 129.699 41.304 134.062 39.8127C141.127 37.4135 146.513 31.2698 147.839 24.0886C148.158 22.4027 148.191 18.9012 147.906 17.3126L147.705 16.1455H144.281H140.858V16.8749V17.6044H143.61H146.362L146.496 18.8526C146.849 22.6458 145.808 26.974 143.711 30.3134C137.804 39.7802 124.816 42.3577 115.402 35.9384C109.193 31.7075 106.021 23.9265 107.565 16.7128C107.934 14.9621 108.438 13.6166 109.361 11.8659C114.21 2.6584 125.756 -1.10242 135.388 3.38787C137.653 4.45775 139.516 5.7708 141.227 7.52152L142.503 8.85078H143.459H144.399L143.845 8.08889C142.922 6.80827 140.472 4.57123 138.861 3.53376C136.378 1.92893 133.894 0.907673 131.041 0.340309C129.128 -0.0487404 125.537 -0.113583 123.574 0.194416Z" fill="url(#paint0_linear_3069_3678)"/>
<path d="M113.455 12.0928C113.522 12.1577 115.033 13.0168 116.795 14.0056L120.016 15.805L128.927 15.7077C133.844 15.6591 137.871 15.5618 137.921 15.5132C137.955 15.4484 132.434 14.6378 125.655 13.6976C118.875 12.7574 113.388 12.028 113.455 12.0928Z" fill="#343434"/>
<path d="M113.203 13.1465C113.572 13.7949 126.846 34.7387 126.963 34.8684C127.047 34.9657 127.098 32.5665 127.047 28.7085C126.98 21.6407 126.98 21.5273 125.839 20.4412C124.966 19.5982 123.859 19.2416 121.594 19.1119L119.832 19.0146L118.64 17.9448C115.133 14.7837 113.119 13.0006 113.203 13.1465Z" fill="#343434"/>
<path d="M134.397 16.5345C131.494 17.2153 129.296 19.501 128.524 22.6458C128.323 23.4725 128.272 24.8828 128.272 29.5514V35.4358H129.866H131.461V30.1998C131.461 27.3306 131.544 24.51 131.645 23.9264C131.981 21.8515 133.155 20.1494 134.733 19.4523C135.454 19.1119 135.824 19.0633 137.552 19.0633H139.515V17.6854V16.3075L137.384 16.3237C136.193 16.3237 134.85 16.421 134.397 16.5345Z" fill="#343434"/>
<path d="M51.4167 43.9463V47.1073H49.2352H47.0537V49.1336V51.1599H49.2352H51.4167V57.3523C51.4167 60.7727 51.5006 64.0634 51.5845 64.6632C52.004 67.4027 53.4807 68.9427 56.4509 69.656C57.6256 69.9316 60.8307 69.9316 62.5423 69.656L63.8344 69.429V67.3703V65.3116L62.794 65.5223C61.0656 65.879 59.1694 65.8141 58.2968 65.3764C56.8201 64.647 56.8704 64.9712 56.8201 57.6279L56.7697 51.1599H60.1427H63.4988V49.1336V47.1073H60.1427H56.7865V43.9463V40.7853H54.1016H51.4167V43.9463Z" fill="#343434"/>
<path d="M89.8445 46.8643C85.3473 48.0476 82.461 51.4842 81.773 56.4284C81.5213 58.2602 81.6723 60.7242 82.1086 62.3938C83.837 68.8132 90.5828 71.342 100.131 69.1374L101.591 68.7969V66.8679C101.591 65.798 101.541 64.9389 101.457 64.9389C101.39 64.9389 100.584 65.1334 99.6612 65.3603C97.6307 65.8629 93.8718 66.0736 92.328 65.7656C89.3914 65.1658 87.4448 63.1881 87.0589 60.4162L86.9414 59.5894H94.6773H102.396L102.464 58.6492C102.547 57.093 102.313 54.6777 101.927 53.3322C101.02 50.1388 99.1745 48.1449 96.1037 47.0912C94.7948 46.6373 91.2037 46.5076 89.8445 46.8643ZM94.5095 50.8196C95.9023 51.5004 97.0602 53.5105 97.0602 55.2288V55.861H92.2273C89.5592 55.861 87.3442 55.8124 87.2938 55.7638C87.1428 55.6341 87.5959 53.9482 87.9818 53.0729C88.4349 52.1164 89.8109 50.9169 90.8345 50.5927C91.8582 50.2685 93.6201 50.3819 94.5095 50.8196Z" fill="#343434"/>
<path d="M7.552 47.0263C4.78319 47.7882 2.7695 49.4741 1.42705 52.1488C0.269179 54.4993 -0.0160933 55.8286 0.000687425 58.941C0.0174681 60.9673 0.084591 61.6967 0.386644 62.7504C1.56129 67.0137 4.22943 69.4129 8.40782 69.9802C10.5725 70.272 12.9218 69.7371 15.0865 68.424C15.7578 68.0188 16.3451 67.6946 16.4122 67.6946C16.58 67.6946 16.5297 69.7857 16.3451 70.9205C15.9088 73.4331 14.3146 74.9244 11.3109 75.6539C10.2705 75.897 6.74653 75.9457 4.73285 75.7512L3.42395 75.6215V77.5667C3.42395 79.82 3.18902 79.593 5.68935 79.8524C8.70987 80.1766 11.6129 79.9659 14.1636 79.2526C18.0232 78.1827 20.3053 76.0754 21.329 72.6388C21.5807 71.7634 21.6142 70.4179 21.6814 59.4597L21.7317 47.2533L19.416 47.3019L17.1002 47.3505L17.0499 47.8368C17.0331 48.0962 16.966 48.7122 16.9156 49.1823L16.8317 50.0252L15.7074 49.0526C15.0865 48.4852 14.0629 47.8044 13.3413 47.464C12.1499 46.8966 11.9989 46.8642 10.2369 46.8318C9.04549 46.8156 8.07221 46.8804 7.552 47.0263ZM13.4253 51.2248C14.6838 51.776 15.9591 52.7162 16.2612 53.2835C16.6304 53.9482 16.6304 63.1232 16.2612 63.7879C15.9591 64.3714 14.2811 65.4738 13.1232 65.8466C11.8814 66.2519 9.93486 66.2194 8.9448 65.798C6.864 64.9064 5.77325 63.107 5.43764 60.0271C5.15236 57.2713 5.72291 54.3858 6.88078 52.7648C7.43454 52.0029 8.55885 51.2086 9.53213 50.9006C10.539 50.5764 12.2842 50.7223 13.4253 51.2248Z" fill="#ED1A65"/>
<path d="M77.1583 47.3505C75.2621 47.7558 73.9029 48.6149 72.6108 50.236L71.8053 51.2248L71.6039 50.0252C71.4865 49.3606 71.3522 48.5663 71.3019 48.2745L71.2012 47.7558H69.0197H66.855L66.8885 58.8113L66.9389 69.883L69.5902 69.9317L72.2248 69.9803V62.3128V54.6614L73.0806 53.8671C74.507 52.5541 77.108 51.6463 79.5244 51.6463H80.4641L80.4138 49.4093L80.3635 47.1884L79.2727 47.156C78.6686 47.1398 77.7121 47.2208 77.1583 47.3505Z" fill="#343434"/>
<path d="M114.747 47.3505C110.233 48.2908 106.458 52.0516 105.635 56.4122C105.518 56.9957 105.451 59.8488 105.451 63.6744V69.9803L107.934 69.9317L110.401 69.883L110.485 63.3178L110.554 57.9415C110.564 57.1585 110.752 56.3872 111.106 55.6827C111.777 54.3859 113.119 53.1052 114.462 52.4892C115.335 52.1002 115.62 52.0516 117.281 52.0516C119.026 52.0516 119.194 52.084 120.235 52.5703C121.577 53.2187 122.903 54.5156 123.54 55.8124C123.839 56.4321 123.998 57.1061 124.007 57.7896L124.077 63.3178L124.161 69.883L126.645 69.9317L129.128 69.9803L129.078 63.1233L129.038 57.6403C129.031 56.7305 128.869 55.8281 128.558 54.9694C126.51 49.3768 120.62 46.1186 114.747 47.3505Z" fill="#343434"/>
<path d="M36.9687 47.1073C35.4584 46.929 35.492 46.929 34.1328 47.1073C29.3503 47.7071 25.4236 51.014 24.1315 55.5367C23.7119 56.9795 23.7119 59.9298 24.1147 61.3725C25.927 67.8404 32.9917 71.4392 39.5194 69.2508C41.2813 68.6672 42.456 67.9215 43.9495 66.4788C46.2484 64.2742 47.3895 61.5994 47.3895 58.4546C47.3895 52.6351 42.993 47.8368 36.9687 47.1073ZM35.6232 65.1526C31.7897 65.1526 28.6819 62.1504 28.6819 58.4472C28.6819 54.7439 31.7897 51.7417 35.6232 51.7417C39.4568 51.7417 42.5646 54.7439 42.5646 58.4472C42.5646 62.1504 39.4568 65.1526 35.6232 65.1526Z" fill="#ED1A65"/>
<path d="M154.987 50.0576L154.92 40.7853H152.504H150.087V44.8379C150.087 47.0587 150.054 48.8905 150.003 48.8905C149.953 48.8905 149.399 48.6473 148.778 48.3393C145.724 46.848 142.435 46.621 139.297 47.6747C134.145 49.393 130.873 54.4831 131.477 59.7839C131.796 62.491 132.803 64.4525 134.985 66.5598C137.3 68.8131 139.868 69.8505 143.207 69.8668C145.338 69.8668 146.563 69.5912 148.661 68.6023C152.05 67.0299 154.467 63.8527 154.92 60.3999C154.987 59.8163 155.021 55.1639 154.987 50.0576ZM143.24 65.2051C139.406 65.2051 136.298 62.203 136.298 58.4997C136.298 54.7964 139.406 51.7943 143.24 51.7943C147.074 51.7943 150.181 54.7964 150.181 58.4997C150.181 62.203 147.073 65.2051 143.24 65.2051Z" fill="#343434"/>
</g>
<defs>
<linearGradient id="paint0_linear_3069_3678" x1="105.654" y1="20.4856" x2="109.899" y2="20.4856" gradientUnits="userSpaceOnUse">
<stop stop-color="#ED1A65"/>
<stop offset="1" stop-color="#070808"/>
</linearGradient>
<clipPath id="clip0_3069_3678">
<rect width="155" height="80" fill="white"/>
</clipPath>
</defs>
</svg>
