<svg width="24" height="20" viewBox="0 0 24 20" fill="none" xmlns="http://www.w3.org/2000/svg">
<path d="M8.09522 20C6.60251 20 5.39145 18.797 5.39145 17.3232C5.39145 15.8494 6.60654 14.6425 8.09522 14.6425C9.58793 14.6425 10.803 15.8454 10.803 17.3232C10.803 18.801 9.58793 20 8.09522 20Z" fill="black"/>
<path d="M20.2421 20C18.7494 20 17.5343 18.797 17.5343 17.3232C17.5343 15.8494 18.7494 14.6425 20.2421 14.6425C21.7348 14.6425 22.9458 15.8454 22.9458 17.3232C22.9458 18.801 21.7348 20 20.2421 20Z" fill="black"/>
<path d="M20.2421 17.7335H8.69874C8.37686 17.7335 8.06705 17.5782 7.87795 17.3193C7.68482 17.0564 7.63252 16.7218 7.72908 16.4151L9.27811 12.6429C9.36663 12.4318 9.60804 12.3282 9.82128 12.4159C10.0345 12.5035 10.1351 12.7425 10.0506 12.9536L8.50963 16.6939C8.50158 16.7178 8.51366 16.7815 8.54584 16.8293C8.58205 16.8771 8.63436 16.905 8.69471 16.905H20.238C20.4674 16.905 20.6565 17.0882 20.6565 17.3193C20.6605 17.5503 20.4714 17.7335 20.2421 17.7335Z" fill="black"/>
<path d="M23.8029 2.7166C23.6097 2.45768 23.3039 2.30632 22.9821 2.30632L5.59264 2.3103L4.77587 0.458083C4.70747 0.306719 4.55861 0.211121 4.39364 0.211121H0.531112C0.301774 0.211121 0.112671 0.394351 0.112671 0.625381C0.112671 0.852427 0.297751 1.03964 0.531112 1.03964H4.12005L9.21778 12.6071C9.37872 12.9775 9.74486 13.2165 10.1553 13.2165H20.1455C20.5921 13.2165 20.9824 12.9337 21.1192 12.5115L23.9517 3.6208C24.0483 3.31409 23.996 2.97551 23.8029 2.7166ZM19.2966 10.8226H10.7668C10.5375 10.8226 10.3484 10.6393 10.3484 10.4083C10.3484 10.1812 10.5335 9.99403 10.7668 9.99403H19.2966C19.5259 9.99403 19.715 10.1773 19.715 10.4083C19.711 10.6393 19.5259 10.8226 19.2966 10.8226ZM20.0248 8.21351H10.0386C9.80923 8.21351 9.62013 8.03028 9.62013 7.79925C9.62013 7.5722 9.80521 7.38499 10.0386 7.38499H20.0248C20.2542 7.38499 20.4433 7.56822 20.4433 7.79925C20.4392 8.03028 20.2542 8.21351 20.0248 8.21351ZM20.6203 5.60845H9.43907C9.20973 5.60845 9.02063 5.42522 9.02063 5.19419C9.02063 4.96715 9.20571 4.77993 9.43907 4.77993H20.6203C20.8496 4.77993 21.0387 4.96316 21.0387 5.19419C21.0387 5.42124 20.8496 5.60845 20.6203 5.60845Z" fill="black"/>
<path d="M1.31567 0.653256C1.31567 1.01175 1.02196 1.30253 0.655826 1.30253C0.293713 1.30253 0 1.01175 0 0.653256C0 0.290779 0.293713 0 0.655826 0C1.02196 0 1.31567 0.290779 1.31567 0.653256Z" fill="black"/>
</svg>
