<svg width="21" height="20" viewBox="0 0 21 20" fill="none" xmlns="http://www.w3.org/2000/svg">
<path fill-rule="evenodd" clip-rule="evenodd" d="M20.0307 14.8799C20.1084 15.1867 20.0307 15.5126 19.7977 15.7363L16.9683 18.5291C16.8129 18.6058 16.651 18.7655 16.4179 18.8358C16.2561 18.9125 16.023 18.9956 15.8676 19.0723C15.8676 19.0723 15.7834 19.0723 15.7057 19.0723C15.628 19.0723 15.5503 19.0723 15.4726 19.0723C15.1619 19.0723 14.7669 18.9956 14.1324 18.9125C13.5821 18.8358 12.7922 18.6058 11.931 18.2926C11.0634 17.9092 10.1246 17.3659 9.02394 16.663C7.92326 15.9727 6.74489 14.9694 5.48235 13.7168C4.45936 12.7901 3.67593 11.8634 3.0479 11.0071C2.41986 10.1507 1.86953 9.3007 1.47458 8.61048C1.07963 7.8308 0.768845 7.12781 0.606981 6.50789C0.367421 5.97106 0.2962 5.42784 0.134336 4.96131C0.134336 4.57786 0.0566406 4.18162 0.0566406 3.95794C0.134336 3.72148 0.134336 3.56171 0.134336 3.56171C0.134336 3.32525 0.212031 3.17826 0.2962 2.9418C0.45159 2.70534 0.529286 2.55835 0.684676 2.48166C7.37292 -4.10731 7.7614 4.81432 6.97797 5.57483L5.95499 6.59098C5.95499 6.59098 5.95499 6.66767 5.87729 6.73797C5.87729 6.81466 5.87729 6.81466 5.87729 6.89774C5.95499 7.12142 6.03268 7.51765 6.26577 7.9011C6.42116 8.20786 6.66072 8.60409 7.0492 9.06423C7.36645 9.53716 7.83909 10.1507 8.54482 10.7706C9.17286 11.3905 9.7232 11.857 10.1958 12.2405C10.7462 12.6367 11.1411 12.8604 11.4519 13.0202C11.7627 13.1672 12.0023 13.2566 12.2353 13.3269L12.4684 13.4036C12.4684 13.4036 12.5526 13.3269 12.6238 13.3269C12.6238 13.3269 12.708 13.3269 12.708 13.2502C15.628 10.3871 19.7912 13.7168 20.0307 14.8799Z" fill="#595959"/>
</svg>
